<svg width="74" height="67" viewBox="0 0 74 67" fill="none" xmlns="http://www.w3.org/2000/svg">
<g id="A">
<g filter="url(#filter0_i)">
<path d="M69.959 42.1231C68.8601 42.7442 67.7493 43.3294 66.6266 43.8788C65.5038 44.4283 64.3691 44.9419 63.2225 45.4196C64.4647 47.9279 65.7785 50.3406 67.164 52.6577C68.5496 54.951 70.0187 57.2084 71.5714 59.43C67.5821 59.43 63.7839 59.8241 60.1768 60.6124C56.5936 61.4246 53.0581 62.7027 49.5705 64.4465C49.7616 63.8254 49.893 63.1446 49.9646 62.4041C50.0363 61.6874 50.0721 60.923 50.0721 60.1108C50.0721 58.6775 49.9288 57.1009 49.6421 55.381C49.3794 53.661 48.9852 51.8336 48.4597 49.8986C47.1936 50.0897 45.9275 50.2331 44.6615 50.3286C43.4193 50.4242 42.1891 50.472 40.9708 50.472C38.8686 50.472 36.8262 50.3047 34.8435 49.9703C32.8608 49.6359 30.9378 49.1223 29.0745 48.4295C28.6445 50.6511 28.2384 52.8966 27.8562 55.166C27.474 57.4353 27.1037 59.7644 26.7454 62.1532C25.5271 61.4844 24.1774 60.8872 22.6964 60.3616C21.4064 59.9077 19.8776 59.4897 18.1099 59.1075C16.3422 58.7492 14.3714 58.57 12.1976 58.57C10.4776 58.57 8.66214 58.7253 6.75109 59.0358C4.84004 59.3703 2.86928 59.9197 0.838791 60.6841C2.70206 58.6536 4.43395 56.6112 6.03445 54.5568C7.65884 52.4786 9.12795 50.4839 10.4418 48.5729C11.7556 46.6379 12.9262 44.8344 13.9533 43.1622C14.9805 41.49 15.8405 40.0448 16.5333 38.8265C15.8405 37.871 15.1836 36.8438 14.5625 35.745C13.9414 34.6461 13.38 33.4636 12.8784 32.1976C13.8339 32.7231 14.7894 33.2128 15.745 33.6667C16.7244 34.0967 17.6918 34.5147 18.6474 34.9208V34.8491C19.9373 32.1976 21.287 29.6057 22.6964 27.0736C24.1058 24.5414 25.6227 22.0929 27.2471 19.728C26.9126 18.9158 26.4946 17.9961 25.9929 16.9689C25.5152 15.9417 24.9896 14.8668 24.4163 13.744C23.843 12.6213 23.2339 11.4986 22.5889 10.3758C21.9678 9.25307 21.3467 8.19005 20.7256 7.18675C23.0905 7.85562 25.5032 8.40504 27.9637 8.83503C30.4481 9.24113 33.0041 9.5039 35.6318 9.62334C37.0173 8.2856 38.4506 7.05537 39.9316 5.93263C41.4127 4.80989 42.9774 3.80659 44.6256 2.92273C44.0523 3.99769 43.491 5.0846 42.9415 6.18345C42.3921 7.2823 41.8546 8.40504 41.3291 9.55167C42.7385 9.48001 44.1479 9.34862 45.5573 9.15752C46.9667 8.96641 48.3761 8.72753 49.7855 8.44088C50.8127 12.5257 51.9354 16.527 53.1537 20.4446C54.372 24.3623 55.7217 28.2083 57.2027 31.9826C58.421 31.2898 59.6035 30.5493 60.7501 29.761C61.8967 28.9488 63.0553 28.1008 64.2258 27.2169C64.9663 30.0596 65.8024 32.7112 66.7341 35.1716C67.6657 37.6321 68.7407 39.9493 69.959 42.1231ZM44.0523 37.2857C41.9263 32.1737 39.3822 26.9064 36.4201 21.4838C35.5123 24.0876 34.6404 26.763 33.8043 29.5102C32.9921 32.2334 32.2038 35.088 31.4394 38.074C32.0605 38.1218 32.6816 38.1576 33.3027 38.1815C33.9238 38.2054 34.5449 38.2174 35.166 38.2174C36.6709 38.2174 38.152 38.1457 39.6091 38.0024C41.0902 37.859 42.5713 37.6202 44.0523 37.2857Z" fill="#D5D586"/>
</g>
<path d="M69.959 42.1231L70.451 42.9936L71.3184 42.5034L70.8313 41.6342L69.959 42.1231ZM63.2225 45.4196L62.8379 44.4965L61.8527 44.907L62.3264 45.8634L63.2225 45.4196ZM67.164 52.6577L66.3058 53.1709L66.3081 53.1748L67.164 52.6577ZM71.5714 59.43V60.43H73.4904L72.391 58.8571L71.5714 59.43ZM60.1768 60.6124L59.9633 59.6355L59.9557 59.6372L60.1768 60.6124ZM49.5705 64.4465L48.6147 64.1524L47.9274 66.386L50.0177 65.3409L49.5705 64.4465ZM49.9646 62.4041L48.9696 62.3045L48.9693 62.3077L49.9646 62.4041ZM49.6421 55.381L48.6535 55.532L48.6557 55.5454L49.6421 55.381ZM48.4597 49.8986L49.4247 49.6365L49.1912 48.7769L48.3104 48.9098L48.4597 49.8986ZM44.6615 50.3286L44.5862 49.3315L44.5848 49.3316L44.6615 50.3286ZM29.0745 48.4295L29.423 47.4922L28.317 47.081L28.0927 48.2395L29.0745 48.4295ZM26.7454 62.1532L26.2642 63.0298L27.5216 63.7201L27.7344 62.3016L26.7454 62.1532ZM22.6964 60.3616L23.0308 59.4192L23.0283 59.4183L22.6964 60.3616ZM18.1099 59.1075L18.3212 58.13L18.3085 58.1274L18.1099 59.1075ZM6.75109 59.0358L6.59068 58.0487L6.57871 58.0508L6.75109 59.0358ZM0.838791 60.6841L0.101996 60.008L1.19112 61.62L0.838791 60.6841ZM6.03445 54.5568L5.24656 53.941L5.24559 53.9422L6.03445 54.5568ZM10.4418 48.5729L11.2659 49.1394L11.2691 49.1346L10.4418 48.5729ZM16.5333 38.8265L17.4026 39.3208L17.7209 38.761L17.3429 38.2395L16.5333 38.8265ZM12.8784 32.1976L13.3603 31.3214L10.9248 29.9818L11.9487 32.5659L12.8784 32.1976ZM15.745 33.6667L15.3159 34.57L15.3293 34.5764L15.343 34.5823L15.745 33.6667ZM18.6474 34.9208L18.2562 35.8411L19.6474 36.4324V34.9208H18.6474ZM18.6474 34.8491L17.7481 34.4117L17.6474 34.6188V34.8491H18.6474ZM27.2471 19.728L28.0713 20.2942L28.3779 19.8479L28.1717 19.3472L27.2471 19.728ZM25.9929 16.9689L25.0862 17.3907L25.0902 17.3992L25.0944 17.4078L25.9929 16.9689ZM22.5889 10.3758L21.7139 10.8599L21.7178 10.8669L21.7218 10.8739L22.5889 10.3758ZM20.7256 7.18675L20.9978 6.2245L18.52 5.52372L19.8754 7.71311L20.7256 7.18675ZM27.9637 8.83503L27.7915 9.82016L27.8024 9.82193L27.9637 8.83503ZM35.6318 9.62334L35.5864 10.6223L36.0166 10.6419L36.3264 10.3427L35.6318 9.62334ZM44.6256 2.92273L45.508 3.39332L47.0605 0.482384L44.1531 2.04144L44.6256 2.92273ZM41.3291 9.55167L40.42 9.13502L39.7329 10.6341L41.3799 10.5504L41.3291 9.55167ZM49.7855 8.44088L50.7553 8.19701L50.5223 7.27054L49.5862 7.46094L49.7855 8.44088ZM57.2027 31.9826L56.2718 32.3479L56.6935 33.4225L57.697 32.8519L57.2027 31.9826ZM60.7501 29.761L61.3167 30.5851L61.3281 30.577L60.7501 29.761ZM64.2258 27.2169L65.1935 26.9648L64.8166 25.5178L63.6232 26.4189L64.2258 27.2169ZM44.0523 37.2857L44.2726 38.2612L45.4321 37.9993L44.9757 36.9017L44.0523 37.2857ZM36.4201 21.4838L37.2977 21.0044L36.2175 19.027L35.4758 21.1546L36.4201 21.4838ZM33.8043 29.5102L32.8477 29.219L32.8461 29.2244L33.8043 29.5102ZM31.4394 38.074L30.4707 37.826L30.1753 38.9798L31.3627 39.0711L31.4394 38.074ZM39.6091 38.0024L39.5128 37.007L39.5113 37.0072L39.6091 38.0024ZM69.4669 41.2525C68.3851 41.864 67.2918 42.44 66.187 42.9806L67.0661 44.7771C68.2068 44.2189 69.3351 43.6244 70.451 42.9936L69.4669 41.2525ZM66.187 42.9806C65.0822 43.5213 63.9659 44.0266 62.8379 44.4965L63.6071 46.3427C64.7724 45.8572 65.9254 45.3353 67.0661 44.7771L66.187 42.9806ZM62.3264 45.8634C63.5798 48.3944 64.9063 50.8303 66.3058 53.1709L68.0223 52.1445C66.6508 49.8508 65.3496 47.4613 64.1186 44.9758L62.3264 45.8634ZM66.3081 53.1748C67.7052 55.4873 69.1865 57.7633 70.7518 60.0029L72.391 58.8571C70.8509 56.6535 69.3939 54.4147 68.02 52.1406L66.3081 53.1748ZM71.5714 58.43C67.516 58.43 63.6459 58.8307 59.9633 59.6355L60.3903 61.5894C63.9219 60.8176 67.6482 60.43 71.5714 60.43V58.43ZM59.9557 59.6372C56.2895 60.4682 52.6784 61.7745 49.1233 63.5521L50.0177 65.3409C53.4379 63.6308 56.8976 62.3811 60.3978 61.5877L59.9557 59.6372ZM50.5263 64.7406C50.7398 64.0466 50.8827 63.2985 50.96 62.5004L48.9693 62.3077C48.9032 62.9906 48.7834 63.6042 48.6147 64.1524L50.5263 64.7406ZM50.9597 62.5036C51.035 61.75 51.0721 60.9521 51.0721 60.1108H49.0721C49.0721 60.8939 49.0376 61.6248 48.9696 62.3045L50.9597 62.5036ZM51.0721 60.1108C51.0721 58.6121 50.9224 56.9796 50.6285 55.2166L48.6557 55.5454C48.9352 57.2222 49.0721 58.7429 49.0721 60.1108H51.0721ZM50.6307 55.2299C50.3614 53.4674 49.9587 51.6026 49.4247 49.6365L47.4946 50.1608C48.0117 52.0645 48.3973 53.8546 48.6536 55.532L50.6307 55.2299ZM48.3104 48.9098C47.0687 49.0973 45.8273 49.2378 44.5862 49.3315L44.7367 51.3258C46.0278 51.2284 47.3185 51.0822 48.6089 50.8874L48.3104 48.9098ZM44.5848 49.3316C43.3675 49.4252 42.1629 49.472 40.9708 49.472V51.472C42.2152 51.472 43.471 51.4232 44.7382 51.3257L44.5848 49.3316ZM40.9708 49.472C38.9218 49.472 36.9351 49.309 35.0098 48.9842L34.6771 50.9564C36.7172 51.3005 38.8154 51.472 40.9708 51.472V49.472ZM35.0098 48.9842C33.0885 48.6602 31.2265 48.1628 29.423 47.4922L28.726 49.3668C30.649 50.0818 32.633 50.6116 34.6771 50.9564L35.0098 48.9842ZM28.0927 48.2395C27.6612 50.4692 27.2536 52.7227 26.8701 54.9999L28.8423 55.332C29.2232 53.0705 29.6279 50.833 30.0563 48.6195L28.0927 48.2395ZM26.8701 54.9999C26.4868 57.2754 26.1156 59.6104 25.7565 62.0049L27.7344 62.3016C28.0918 59.9184 28.4612 57.5952 28.8423 55.332L26.8701 54.9999ZM27.2267 61.2766C25.9557 60.5788 24.5561 59.9604 23.0308 59.4192L22.362 61.304C23.7988 61.8139 25.0986 62.3899 26.2642 63.0298L27.2267 61.2766ZM23.0283 59.4183C21.6887 58.947 20.1176 58.5185 18.3212 58.1301L17.8985 60.0849C19.6376 60.4609 21.1242 60.8685 22.3645 61.3049L23.0283 59.4183ZM18.3085 58.1274C16.4637 57.7535 14.425 57.57 12.1976 57.57V59.57C14.3178 59.57 16.2206 59.7449 17.9112 60.0876L18.3085 58.1274ZM12.1976 57.57C10.4177 57.57 8.54828 57.7307 6.59069 58.0488L6.91149 60.0229C8.77599 59.7199 10.5376 59.57 12.1976 59.57V57.57ZM6.57871 58.0508C4.59957 58.3972 2.56853 58.9644 0.486461 59.7482L1.19112 61.62C3.17003 60.875 5.08052 60.3434 6.92347 60.0209L6.57871 58.0508ZM1.57558 61.3602C3.45599 59.3111 5.20536 57.2482 6.82331 55.1714L5.24559 53.9422C3.66253 55.9742 1.94814 57.9962 0.101996 60.008L1.57558 61.3602ZM6.82234 55.1726C8.45761 53.0804 9.93901 51.0693 11.2658 49.1394L9.61776 48.0063C8.3169 49.8985 6.86007 51.8767 5.24656 53.941L6.82234 55.1726ZM11.2691 49.1346C12.5899 47.1894 13.7689 45.3729 14.8054 43.6856L13.1013 42.6388C12.0834 44.2958 10.9214 46.0865 9.61449 48.0111L11.2691 49.1346ZM14.8054 43.6856C15.8364 42.0073 16.7025 40.5519 17.4026 39.3208L15.664 38.3322C14.9785 39.5377 14.1247 40.9728 13.1013 42.6388L14.8054 43.6856ZM17.3429 38.2395C16.6737 37.3165 16.0369 36.3212 15.4331 35.2529L13.6919 36.237C14.3303 37.3664 15.0073 38.4255 15.7236 39.4135L17.3429 38.2395ZM15.4331 35.2529C14.8362 34.1969 14.2942 33.056 13.8081 31.8292L11.9487 32.5659C12.4659 33.8712 13.0466 35.0954 13.6919 36.237L15.4331 35.2529ZM12.3965 33.0738C13.3688 33.6086 14.3419 34.1073 15.3159 34.57L16.174 32.7634C15.2369 32.3183 14.299 31.8376 13.3603 31.3214L12.3965 33.0738ZM15.343 34.5823C16.3259 35.0139 17.297 35.4335 18.2562 35.8411L19.0385 34.0005C18.0867 33.596 17.1229 33.1795 16.1469 32.751L15.343 34.5823ZM19.6474 34.9208V34.8491H17.6474V34.9208H19.6474ZM19.5466 35.2866C20.8286 32.6513 22.1698 30.0757 23.5702 27.5599L21.8226 26.5872C20.4041 29.1357 19.046 31.7439 17.7481 34.4117L19.5466 35.2866ZM23.5702 27.5599C24.9645 25.0549 26.4649 22.633 28.0713 20.2942L26.4228 19.1618C24.7805 21.5528 23.2471 24.028 21.8226 26.5872L23.5702 27.5599ZM28.1717 19.3472C27.8272 18.5106 27.3999 17.571 26.8915 16.5301L25.0944 17.4078C25.5893 18.4212 25.998 19.321 26.3224 20.1087L28.1717 19.3472ZM26.8997 16.5472C26.4162 15.5077 25.8852 14.4217 25.3069 13.2893L23.5257 14.1988C24.0941 15.3118 24.6142 16.3757 25.0862 17.3907L26.8997 16.5472ZM25.3069 13.2893C24.7259 12.1515 24.1089 11.0143 23.456 9.87769L21.7218 10.8739C22.3588 11.9828 22.9601 13.0911 23.5257 14.1988L25.3069 13.2893ZM23.4639 9.89175C22.8356 8.75593 22.2063 7.67873 21.5759 6.6604L19.8754 7.71311C20.4871 8.70137 21.1 9.75021 21.7139 10.8599L23.4639 9.89175ZM20.4535 8.14901C22.8518 8.82733 25.2979 9.38432 27.7916 9.8201L28.1359 7.84996C25.7085 7.42577 23.3292 6.8839 20.9978 6.2245L20.4535 8.14901ZM27.8024 9.82193C30.3268 10.2346 32.9216 10.5012 35.5864 10.6223L35.6772 8.62437C33.0866 8.50661 30.5693 8.24768 28.125 7.84813L27.8024 9.82193ZM36.3264 10.3427C37.6843 9.03162 39.0875 7.82741 40.5357 6.72953L39.3275 5.13572C37.8137 6.28333 36.3503 7.53959 34.9372 8.90393L36.3264 10.3427ZM40.5357 6.72953C41.975 5.63851 43.4956 4.66338 45.0982 3.80402L44.1531 2.04144C42.4591 2.9498 40.8504 3.98127 39.3275 5.13572L40.5357 6.72953ZM43.7433 2.45214C43.1658 3.53491 42.6004 4.62961 42.0471 5.73624L43.836 6.63067C44.3815 5.53959 44.9388 4.46048 45.508 3.39332L43.7433 2.45214ZM42.0471 5.73624C41.4925 6.84546 40.9501 7.97839 40.42 9.13502L42.2382 9.96833C42.7591 8.83169 43.2917 7.71915 43.836 6.63067L42.0471 5.73624ZM41.3799 10.5504C42.8174 10.4773 44.2547 10.3433 45.6916 10.1485L45.4229 8.16659C44.041 8.35396 42.6595 8.48273 41.2783 8.55296L41.3799 10.5504ZM45.6916 10.1485C47.123 9.95436 48.5541 9.7118 49.9848 9.42081L49.5862 7.46094C48.198 7.74327 46.8103 7.97847 45.4229 8.16659L45.6916 10.1485ZM48.8157 8.68475C49.8472 12.787 50.9749 16.8059 52.1988 20.7416L54.1086 20.1477C52.8959 16.2481 51.7781 12.2645 50.7553 8.19701L48.8157 8.68475ZM52.1988 20.7416C53.4242 24.682 54.7818 28.5508 56.2718 32.3479L58.1336 31.6173C56.6615 27.8657 55.3198 24.0425 54.1086 20.1477L52.1988 20.7416ZM57.697 32.8519C58.9398 32.1452 60.1464 31.3896 61.3166 30.585L60.1836 28.9369C59.0605 29.709 57.9022 30.4345 56.7084 31.1133L57.697 32.8519ZM61.3281 30.577C62.4834 29.7587 63.6501 28.9047 64.8284 28.0149L63.6232 26.4189C62.4604 27.2969 61.3101 28.1389 60.1721 28.945L61.3281 30.577ZM63.2581 27.469C64.0066 30.3423 64.8532 33.0283 65.7989 35.5257L67.6693 34.8175C66.7516 32.394 65.9261 29.7769 65.1935 26.9648L63.2581 27.469ZM65.7989 35.5257C66.7471 38.0301 67.8427 40.3925 69.0866 42.612L70.8313 41.6342C69.6386 39.506 68.5843 37.2341 67.6693 34.8175L65.7989 35.5257ZM44.9757 36.9017C42.8346 31.7536 40.2748 26.4544 37.2977 21.0044L35.5425 21.9632C38.4896 27.3583 41.018 32.5938 43.129 37.6697L44.9757 36.9017ZM35.4758 21.1546C34.5635 23.7715 33.6875 26.4596 32.8477 29.219L34.761 29.8013C35.5934 27.0664 36.4612 24.4037 37.3644 21.813L35.4758 21.1546ZM32.8461 29.2244C32.0298 31.9611 31.2381 34.8284 30.4707 37.826L32.4082 38.322C33.1696 35.3477 33.9545 32.5057 34.7626 29.796L32.8461 29.2244ZM31.3627 39.0711C31.9965 39.1198 32.6304 39.1564 33.2643 39.1808L33.3411 37.1823C32.7328 37.1589 32.1245 37.1238 31.5161 37.077L31.3627 39.0711ZM33.2643 39.1808C33.8981 39.2052 34.532 39.2174 35.166 39.2174V37.2174C34.5577 37.2174 33.9494 37.2057 33.3411 37.1823L33.2643 39.1808ZM35.166 39.2174C36.7027 39.2174 38.2164 39.1442 39.707 38.9976L39.5113 37.0072C38.0875 37.1472 36.6391 37.2174 35.166 37.2174V39.2174ZM39.7055 38.9977C41.2291 38.8503 42.7515 38.6046 44.2726 38.2612L43.8321 36.3103C42.391 36.6357 40.9514 36.8678 39.5128 37.007L39.7055 38.9977Z" fill="#42402C"/>
</g>
<defs>
<filter id="filter0_i" x="0.101997" y="0.482391" width="73.3884" height="69.9037" filterUnits="userSpaceOnUse" color-interpolation-filters="sRGB">
<feFlood flood-opacity="0" result="BackgroundImageFix"/>
<feBlend mode="normal" in="SourceGraphic" in2="BackgroundImageFix" result="shape"/>
<feColorMatrix in="SourceAlpha" type="matrix" values="0 0 0 0 0 0 0 0 0 0 0 0 0 0 0 0 0 0 127 0" result="hardAlpha"/>
<feOffset dy="4"/>
<feGaussianBlur stdDeviation="2"/>
<feComposite in2="hardAlpha" operator="arithmetic" k2="-1" k3="1"/>
<feColorMatrix type="matrix" values="0 0 0 0 0 0 0 0 0 0 0 0 0 0 0 0 0 0 0.25 0"/>
<feBlend mode="normal" in2="shape" result="effect1_innerShadow"/>
</filter>
</defs>
</svg>
